inDegrees=no
num_controls=7
num_derivatives=13
num_iterations=189
num_multipliers=7
num_parameters=0
num_slacks=7
num_states=26
objective=6.487928
objective_accelerations=0.687959
objective_balance=0.055422
objective_effort=0.550212
objective_height=5.170118
objective_ligament=0.024217
solver_duration=1607.062250
status=Solve_Succeeded
success=true
DataType=double
version=3
OpenSimVersion=4.4-2022-07-23-0e9fedc
endheader
time	/jointset/ground_pelvis/pelvis_tilt/value	/jointset/ground_pelvis/pelvis_tx/value	/jointset/ground_pelvis/pelvis_ty/value	/jointset/hip_r/hip_flexion_r/value	/jointset/hip_r/hip_adduction_r/value	/jointset/hip_r/hip_rotation_r/value	/jointset/back/lumbar_extension/value	/jointset/patellofemoral_r/patellar_flexion_r/value	/jointset/knee_r/knee_flexion_r/value	/jointset/knee_r/knee_adduction_r/value	/jointset/knee_r/knee_rotation_r/value	/jointset/ankle_r/ankle_angle_r/value	/jointset/subtalar_r/subtalar_angle_r/value	/jointset/ground_pelvis/pelvis_tilt/speed	/jointset/ground_pelvis/pelvis_tx/speed	/jointset/ground_pelvis/pelvis_ty/speed	/jointset/hip_r/hip_flexion_r/speed	/jointset/hip_r/hip_adduction_r/speed	/jointset/hip_r/hip_rotation_r/speed	/jointset/back/lumbar_extension/speed	/jointset/patellofemoral_r/patellar_flexion_r/speed	/jointset/knee_r/knee_flexion_r/speed	/jointset/knee_r/knee_adduction_r/speed	/jointset/knee_r/knee_rotation_r/speed	/jointset/ankle_r/ankle_angle_r/speed	/jointset/subtalar_r/subtalar_angle_r/speed	/forceset/tau_hip_flexion_r	/forceset/tau_hip_adduction_r	/forceset/tau_hip_rotation_r	/forceset/tau_knee_flexion_r	/forceset/tau_ankle_angle_r	/forceset/tau_subtalar_angle_r	/forceset/tau_lumbar_extension	lambda_cid13_p0	lambda_cid14_p0	lambda_cid14_p1	lambda_cid14_p2	lambda_cid14_p3	lambda_cid14_p4	lambda_cid14_p5	/jointset/ground_pelvis/pelvis_tilt/accel	/jointset/ground_pelvis/pelvis_tx/accel	/jointset/ground_pelvis/pelvis_ty/accel	/jointset/hip_r/hip_flexion_r/accel	/jointset/hip_r/hip_adduction_r/accel	/jointset/hip_r/hip_rotation_r/accel	/jointset/back/lumbar_extension/accel	/jointset/patellofemoral_r/patellar_flexion_r/accel	/jointset/knee_r/knee_flexion_r/accel	/jointset/knee_r/knee_adduction_r/accel	/jointset/knee_r/knee_rotation_r/accel	/jointset/ankle_r/ankle_angle_r/accel	/jointset/subtalar_r/subtalar_angle_r/accel	gamma_cid13_p0	gamma_cid14_p0	gamma_cid14_p1	gamma_cid14_p2	gamma_cid14_p3	gamma_cid14_p4	gamma_cid14_p5
1	-0.3258879963703759	-0.009392605191968778	0.6371782847245451	1.541606788803312	-0.2448430276387972	0.04064600644382971	-0.4363314734480683	1.453255555676829	1.453255555676755	0.01473252521881266	0.174532756902126	0.4363204693590583	0.08662474775237376	-0.001493492468972505	0.002918114679274682	0.01629607840453239	-0.04158286486150396	-0.0001349795925717689	-0.01558869316922681	-5.003718267018201e-05	-0.04890594219811211	-0.04890594219811212	-0.002611925838493743	6.887118639852803e-06	-0.007673775963005376	-0.002635278131747371	-0.3040379965811318	0.004396112053278037	0.01576733152208279	-0.513538704206419	-0.0006945227886030292	0.005794064601783186	0.3143616470999919	-0.043464832025488	-50.03369593045436	-5.940822082700175	1.060595294017131	18.59728028065638	-812.7014603219155	66.65933754967398	1.3489745685457	0.0604288934854849	1.946650165173027	-5.87796514263066	-0.06045409248192098	-1.171942551150601	-0.02940186524870276	-5.571608675621509	-5.571608675621099	0.383053219626571	0.01102845411365823	-1.299806845677628	-0.5447055965114873	1.376304268563262e-09	8.523957726569957e-10	1.650753476398672e-08	1.119451452770735e-08	-1.765804070612523e-09	-3.39127071412389e-09	2.20581651954227e-08
1.01	-0.3258362824117346	-0.00936044680274507	0.6374384016901432	1.540898179070987	-0.2448472084698088	0.04043249209340864	-0.4363323129985824	1.452488084532445	1.452488084532344	0.01472619864814585	0.1745328060132745	0.4361786296453102	0.08657142995906972	0.01182181847595985	0.003512216152838729	0.03572230829147705	-0.1001146461608424	-0.0006987436516589401	-0.02711157452172483	-8.028029019071768e-05	-0.104595658229378	-0.1045956582293794	0.001348503476172111	2.684192534821654e-06	-0.02071191155439684	-0.008029233095613614	-0.3042599288455642	0.004545672302553669	0.01577356638866131	-0.5129202994748056	-0.001310804618049236	0.005843353806641905	0.3145507289462527	-0.04348373482136317	-50.22597452391651	-5.950248605807709	1.058861311805271	18.76202575807522	-812.6188254808245	66.58708508553426	1.320639826083375	0.05869770783241864	1.939857156966413	-5.83711906753621	-0.05396738053505123	-1.142070990747902	0.01590235106437576	-5.568759277987591	-5.568759277988032	0.4028237844223533	-0.006175313481065929	-1.308479814157812	-0.5368749684167555	2.382444547114484e-09	1.778831182377068e-09	3.590491533898586e-08	2.239676015551911e-08	-5.03987031009803e-09	-6.369649101516393e-09	4.688900224671413e-08
1.02	-0.3256518492499206	-0.009322388012077592	0.6378926305059133	1.539604984636879	-0.2448569529049935	0.04010382691677305	-0.4363323129985824	1.451163494985526	1.451163494985396	0.01475953357003468	0.1745328069656809	0.4359058759959901	0.08646414571170853	0.02505034816554702	0.004098194968028682	0.05511844843887007	-0.158499805218212	-0.001247700427264401	-0.03861885841216245	0.0001189919850141599	-0.1603296227049822	-0.1603296227049862	0.005320372672268014	-2.744633909407704e-06	-0.03385656307730428	-0.01342856894318228	-0.3044818611099866	0.004695232551832041	0.01577980125523152	-0.512301894743192	-0.001927086447495885	0.00589264301150533	0.3147398107925233	-0.04351062636952608	-50.42777068651065	-5.959643191915302	1.05518223915539	18.95279323618217	-812.6827854625902	66.51887447238975	1.331618317476653	0.05880436181067444	1.940632217262698	-5.848640694236919	-0.05749263578557941	-1.16882305873852	0.01650121129654614	-5.580458364489155	-5.580458364488998	0.3853411959125812	0.01078327404581841	-1.321110031980806	-0.5457817732519673	3.338521568466805e-09	7.661381534529646e-10	5.321591487023559e-08	3.490204163956256e-08	-3.812034230719565e-09	-9.14275043361069e-09	6.718774265200922e-08
1.03	-0.3253358810920218	-0.009278294474476837	0.638540606717858	1.537728833308804	-0.2448721165341256	0.03966021810124495	-0.4363277309720172	1.449281465401242	1.449281465401247	0.01483266129701027	0.1745327463953288	0.4355014388841078	0.08630295756766929	0.03809541907888697	0.004740754692077457	0.07446528693425816	-0.2166882277349382	-0.001783397562535738	-0.05009644747167912	0.0009822647092839118	-0.2160718958398353	-0.216071895839836	0.0093083599160372	-8.433848084726338e-06	-0.0470193844515592	-0.01879927337202063	-0.3053558078551676	0.004861051490033607	0.01581092781820354	-0.5112570134843469	-0.002576863516149199	0.00596822981299977	0.3156855255185765	-0.04353111876677784	-50.63623288181176	-5.952083867378504	1.041147218221639	18.85311097776649	-812.9528671196388	66.42859872113812	1.283772665286461	0.07001759877919722	1.929981213759522	-5.797607515466699	-0.05135563316955181	-1.136259317302161	0.148937890341444	-5.570452905806813	-5.570452905806405	0.4060103745291884	-0.00609040503387158	-1.312150059987687	-0.5312298326175972	4.294087740255871e-09	-2.66341900355274e-10	7.050562479899806e-08	4.742061940785328e-08	-2.538260372577156e-09	-1.191375710187541e-08	8.744023717316147e-08
1.04	-0.3248908979875846	-0.009227168175420134	0.6393817056243732	1.535272064858548	-0.2448925866107644	0.03910202689757272	-0.4363089756967399	1.446842144862046	1.446842144862184	0.01494576547360943	0.1745326598556674	0.4349657171845149	0.08608835936835812	0.05085333747317859	0.005504747259218338	0.09374298735294982	-0.2746232296547139	-0.00230898992867319	-0.06153533604095236	0.002953440927522811	-0.2717878136876254	-0.2717878136876235	0.01331566259661018	-7.938497646488068e-06	-0.06011348061940805	-0.02411057999757212	-0.3062297546003422	0.005026870428236596	0.01584205438116739	-0.510212132225502	-0.003226640584802931	0.006043816614496668	0.3166312402446361	-0.04355980527664759	-50.85436371009666	-5.944538023369684	1.025196012506971	18.77917495797503	-813.3720946300008	66.34281758054341	1.274187813666982	0.08309093042910122	1.926804601923417	-5.797956574846816	-0.05547168195880481	-1.161082960689833	0.2380819100903383	-5.575187307076564	-5.575187307076537	0.3892042832733417	0.01202018696853495	-1.307364990699579	-0.533902212594594	5.373935462896551e-09	1.36578157593496e-09	8.976475128229007e-08	6.025180747667897e-08	-7.036976202812807e-09	-1.410550456314843e-08	1.122020565605312e-07
1.05	-0.324319637682445	-0.0091678036883999	0.6404151557264904	1.532237295406892	-0.2449182433622779	0.03842969939699176	-0.4362653201884453	1.443845911283242	1.443845911283287	0.0150990457864143	0.174532599567524	0.4342993018608367	0.08582095711324114	0.06336143822126701	0.006387554000356655	0.112927209571109	-0.3322775215714363	-0.002818333779271627	-0.07291942342996759	0.005930993670364861	-0.3274431261997215	-0.3274431261997213	0.01734205010704919	-4.771552071676308e-06	-0.07316755582888528	-0.02935790258259292	-0.3065524371510653	0.005137934710191755	0.0158996129550059	-0.5089223134746749	-0.003568698459227171	0.006106669339127064	0.3171083560677893	-0.04359981896604643	-50.93962949545935	-5.913956483373898	0.9995156957834673	18.64877596343737	-813.2016952189393	66.26434347353135	1.233529394037975	0.09378373382907895	1.911254229069757	-5.741193876936591	-0.04804901840376651	-1.125461825457502	0.3505918971965251	-5.558338144758626	-5.558338144758863	0.4096107110309427	-0.005610794167473653	-1.304128718174679	-0.5183258450344583	6.457666984001344e-09	3.081173912540756e-09	1.090854220329111e-07	7.309276461739638e-08	-1.171608233581024e-08	-1.627915017420295e-08	1.371047923499702e-07
1.06	-0.323624414732094	-0.009099029496393667	0.6416398526902508	1.528627577360698	-0.2449488702086559	0.03764385298302978	-0.4361872891645587	1.440293597595022	1.440293597594973	0.0152926409195453	0.1745325558003329	0.433502405798643	0.08550144591955827	0.07564586651568476	0.007386688256417581	0.1319923596815643	-0.3896129485622234	-0.003303008901605847	-0.08423911871698821	0.009828544045821846	-0.3830038355711184	-0.3830038355711191	0.0213786266615587	-4.634307274030211e-06	-0.08620962832247846	-0.03453236771075922	-0.3068751197017922	0.00524899899214602	0.01595717152883934	-0.507632494723849	-0.003910756333651715	0.006169522063755928	0.3175854718909383	-0.0436482234028889	-51.03464481200112	-5.883434100381257	0.9719624703679618	18.54240332588041	-813.1826630480419	66.19128886407492	1.229453322932833	0.1063564334136312	1.902990180382675	-5.734183589659756	-0.05053793630596481	-1.148204540290913	0.4220814366133173	-5.556266678936726	-5.556266678936537	0.391242092087442	0.0114142468131076	-1.304964447522758	-0.5193307212236905	7.632845487293042e-09	4.452392148071471e-09	1.278714751414216e-07	8.713553347521156e-08	-1.535239458740909e-08	-1.820174328236702e-08	1.610765593693739e-07
